<svg id="Capa_1" data-name="Capa 1" xmlns="http://www.w3.org/2000/svg" viewBox="0 0 190.16 192.25"><defs><style>.cls-1{fill:#fff;}</style></defs><title>logo</title><path class="cls-1" d="M187.34,95.18c-4.46-.42-9-.12-14.46-.12,3-3,5.23-5.19,7.51-7.43s3.1-4.46.61-6.78-4.94-1.2-7.06.9c-3.78,3.74-7.57,7.49-11.44,11.15-.93.86-2.14,2-3.25,2-9.5.17-19,.09-28.53.09l-.43-1.12c3.51-3.2,7.18-6.26,10.48-9.64a5.35,5.35,0,0,0,1.28-4.46c-.32-1-2.51-1.8-4-2-4.42-.54-8.87-.71-14.75-1.11,6.65-6.11,12.18-11.42,18-16.41a10,10,0,0,1,5.9-2.17c5.61-.06,11.24.44,16.85.63,2.88.1,5.25-.86,5.44-3.94.19-3.37-2.24-4.52-5.28-4.62-3.58-.15-7.17,0-10.75,0L153,48.89c3.89-3.6,7.83-7.18,11.7-10.82,2.05-1.91,2.49-4.46.27-6-1.36-.94-4.08-.63-6-.17-1.28.32-2.22,1.87-3.31,2.89-2.93,2.74-5.84,5.51-8.77,8.25a31.85,31.85,0,0,1-1-9.94c.12-3-1.24-5-4.27-5.07-3.39-.06-4.58,2.24-4.48,5.27.13,4-.17,8.08.31,12.06.61,4.75-1,8.08-4.79,11.26-5.69,4.79-10.88,10.13-17.2,16.09,0-6.17.16-11-.09-15.86-.08-1.49-1-3.62-2.17-4.19s-3.44.3-4.67,1.18c-3.79,2.76-7.31,5.84-11.74,9.44,0-9.19-.11-17.33.1-25.48,0-1.17,1.36-2.47,2.39-3.41q6.09-5.52,12.35-10.88c2.3-2,3.45-4.29,1-6.7s-4.92-1.4-7.18.59c-2.59,2.3-5.23,4.56-8.72,7.6,0-6-.07-10.82,0-15.66,0-2.58-.55-4.9-2.94-5.46-1.06-.24-3.24,2.36-4,3.35Q71.05,32.79,52.28,58.43c-2.15,2.93-4.29,5.86-6.45,8.79-1.21,1.63-2,3.37-1,5.38s2.85,2.49,4.9,2.45c1,0,2.11,0,3.16,0h8.93c-.75,1.13-1.21,1.88-1.71,2.59Q43.4,101.76,26.73,125.89a16.71,16.71,0,0,0-1.43,2.24c-1.67,3.34.13,6.69,3.87,7,1.68.16,3.4.06,5.09.06h6.93c-.84,1.28-1.36,2.07-1.91,2.89q-16,23.82-32,47.68c-1.57,2.3-3.26,4.62-1.76,7.55,1.24,2.43,3.39,2.74,5.63,2.78l80.66,0a2.61,2.61,0,0,0,1.34-.36c1.15-.69,3.43-2.23,3.54-3.7.4-5.69.13-11.4.13-18.37l7.36,6.34c2.47,2.15,5.15,5.08,8.48,1.86s.27-5.65-2.26-7.85c-3.79-3.3-7.62-6.59-11.32-10-.94-.84-2.09-2-2.12-3.08-.19-8.72-.1-17.44-.1-26.16l1.53-.61c3.16,3.39,6.15,6.91,9.54,10.07,1.34,1.24,3.54,1.65,5.34,2.43.81-1.72,2.09-3.37,2.36-5.15.61-4.06.74-8.2,1.15-13.39,7.08,6.78,13.52,12.78,19.74,19,.86.86.94,2.64.9,4-.12,5.17-.44,10.34-.75,15.51-.17,2.93.67,5.4,4.08,5.67,3.72.27,4.92-2.26,5-5.34.08-3.26,0-6.53,0-11.13,4.54,4.24,8.16,7.59,11.72,11,2.2,2.1,4.61,3.86,7.43,1.32s1.43-5.15-1.07-7.34c-3.55-3.16-7.07-6.36-10.61-9.54l.44-1.16h9.71c3.27,0,6-1.07,5.82-4.54-.16-3.08-2.63-4.12-5.86-4-4.85.19-9.75-.16-14.59.23-3.72.32-6.19-.9-8.7-3.37-5.65-5.61-11.64-10.92-17.16-17.43,4.7,0,9.46.21,14.17-.08,1.84-.13,4.29-.93,5.16-2.2.61-.88-.62-3.39-1.69-4.71-2.72-3.37-5.82-6.45-9.42-10.36,9.9,0,18.82-.09,27.71.1,1.24,0,2.64,1.22,3.62,2.18,3.81,3.7,7.54,7.51,11.2,11.36,2.22,2.33,4.71,3.6,7.43,1.16s1.21-4.9-1-7.08-4.52-4.58-7.58-7.72c5.78,0,10.55.27,15.28-.13,2.49-.21,4.85-1.57,7.3-2.42V97.65C192.51,96.79,190,95.41,187.34,95.18ZM115.65,84.61a6.49,6.49,0,0,1,3.69-1.31c3.53.09,7,.52,10.65.81C124.3,93.65,118.94,96,104.42,94.68,108.64,90.87,112.05,87.65,115.65,84.61ZM96.88,74.09a4.61,4.61,0,0,1,1.51-2.91c2.93-2.62,6-5.09,9.29-7.79,2.43,11,.84,20-10.86,25.89C96.82,84.05,96.74,79.07,96.88,74.09Zm13,50.08c-.23,3.54-.59,7-.94,10.88-9.51-6.05-15.07-13.33-11.31-24.76,3.92,3.69,7.87,7.31,11.66,11.07A4,4,0,0,1,109.86,124.17Zm-5.76-20.51c5.46,0,10.32-.13,15.15.06a6.59,6.59,0,0,1,3.81,1.65c2.64,2.54,5,5.34,7.52,8.08C120,116.78,112.47,114.06,104.1,103.66Z" transform="translate(-4.92 -3.88)"/></svg>